<svg width="20" height="20" viewBox="0 0 20 20" fill="none" xmlns="http://www.w3.org/2000/svg">
<path d="M1 7.14355C1.04198 6.95243 1.07346 6.7613 1.1233 6.57548C1.54044 5.03851 2.88103 3.96343 4.45774 3.9475C6.43321 3.92892 8.40606 3.93954 10.3815 3.94219C10.8065 3.94219 11.124 4.26339 11.1187 4.66422C11.1135 5.07037 10.8013 5.36767 10.3684 5.36767C8.43492 5.37033 6.50142 5.36767 4.56792 5.37033C3.45557 5.37298 2.59507 6.12421 2.42717 7.23646C2.41143 7.34795 2.40881 7.4621 2.40881 7.57359C2.40881 10.3715 2.40881 13.172 2.40618 15.9699C2.40618 16.3123 2.51637 16.5804 2.83381 16.7184C3.14075 16.8538 3.41097 16.7636 3.65496 16.5353C3.99601 16.2167 4.34755 15.9115 4.68598 15.5929C4.86962 15.4204 5.07688 15.3487 5.32348 15.3487C7.76069 15.3513 10.1979 15.3513 12.6377 15.3487C13.6714 15.3487 14.4899 14.6957 14.7286 13.6843C14.7654 13.525 14.7811 13.3551 14.7837 13.1906C14.7916 12.6809 14.7837 12.1686 14.7864 11.6589C14.789 11.2262 15.0854 10.905 15.4842 10.8997C15.883 10.8944 16.1952 11.2183 16.1925 11.6456C16.1873 12.3225 16.2135 13.0021 16.1532 13.6763C16.0141 15.2 14.7181 16.5326 13.2254 16.7317C13.005 16.7609 12.782 16.7742 12.559 16.7742C10.2845 16.7768 8.01254 16.7768 5.73799 16.7715C5.57009 16.7715 5.44154 16.8113 5.31561 16.9308C5.04015 17.1962 4.75681 17.4564 4.46298 17.7006C3.20372 18.7491 1.33843 18.059 1.03673 16.4371C1.02623 16.4079 1.01049 16.376 1 16.3415C1 13.2755 1 10.2095 1 7.14355Z" fill="#CFCFCF"/>
<path d="M8.64779 11.574C8.7265 10.0927 9.26431 8.85306 10.2691 7.83107C11.9717 6.09767 13.6796 4.36691 15.3901 2.63882C16.0276 1.99377 16.9563 1.82388 17.7591 2.1902C18.5514 2.55122 19.042 3.35819 18.9974 4.25012C18.9712 4.78102 18.7796 5.24822 18.4097 5.62516C16.6599 7.40635 14.9153 9.19019 13.147 10.9528C12.1265 11.9695 10.8725 12.4712 9.43746 12.5004C8.92063 12.511 8.62943 12.2057 8.64779 11.6828C8.65042 11.6324 8.64779 11.5846 8.64779 11.574ZM10.1091 11.0032C10.9355 10.8307 11.6149 10.4856 12.1737 9.92549C13.9105 8.17616 15.6393 6.41886 17.3682 4.66157C17.6725 4.35364 17.6725 3.91299 17.384 3.62896C17.098 3.34758 16.6677 3.36085 16.3634 3.66612C14.6477 5.40483 12.9345 7.14089 11.2214 8.88226C10.8279 9.2831 10.5314 9.75029 10.3321 10.2759C10.2481 10.5015 10.1904 10.7378 10.1091 11.0032Z" fill="#CFCFCF"/>
<path d="M5.56989 9.64627C5.22359 9.64627 4.87992 9.64892 4.53362 9.64627C4.12436 9.64096 3.82003 9.34642 3.81216 8.9537C3.80429 8.55568 4.10599 8.22929 4.51788 8.22399C5.22097 8.21603 5.92143 8.21603 6.62453 8.22399C7.03641 8.22929 7.33811 8.55568 7.32762 8.9537C7.31975 9.34642 7.01542 9.64096 6.60616 9.64362C6.25986 9.64892 5.91619 9.64627 5.56989 9.64627Z" fill="#CFCFCF"/>
<path d="M5.57811 12.4971C5.23182 12.4971 4.88814 12.4998 4.54184 12.4971C4.12209 12.4918 3.81776 12.1946 3.81252 11.7939C3.80989 11.3959 4.11422 11.0775 4.52872 11.0748C5.22395 11.0669 5.92179 11.0669 6.61701 11.0748C7.02889 11.0801 7.33322 11.4012 7.32797 11.7992C7.32272 12.1919 7.0184 12.4891 6.61176 12.4971C6.60127 12.4971 6.58815 12.4971 6.57766 12.4971C6.24448 12.4971 5.9113 12.4971 5.57811 12.4971Z" fill="#CFCFCF"/>
</svg>
