<svg width="20" height="20" viewBox="0 0 20 20" fill="none" xmlns="http://www.w3.org/2000/svg">
<path d="M3.05513 13.2603C2.86165 13.2405 2.68021 13.2377 2.5058 13.2016C1.61515 13.0172 1.0019 12.2597 1.00127 11.3467C0.999708 8.86214 0.999395 6.37762 1.00143 3.89311C1.00221 2.92418 1.68438 2.15311 2.65551 2.0156C2.73772 2.00403 2.82164 2.00063 2.90478 2.00063C6.63414 1.99986 10.3636 2.00001 14.093 2.00001C15.1718 2.00001 16.0092 2.82757 16.0093 3.89496C16.0095 6.37947 16.0095 8.86399 16.0093 11.3485C16.0092 12.4159 15.1729 13.2435 14.0932 13.2438C12.0748 13.2442 10.0564 13.2436 8.03802 13.2459C7.98551 13.2459 7.9244 13.2644 7.88174 13.2942C6.55897 14.2216 5.2376 15.1511 3.91733 16.082C3.73386 16.2113 3.54257 16.2492 3.33862 16.1461C3.13421 16.0427 3.05403 15.8655 3.0545 15.6439C3.05591 14.8825 3.05497 14.1213 3.05497 13.36C3.05513 13.3245 3.05513 13.2891 3.05513 13.2603ZM4.09471 14.6899C4.12347 14.6729 4.1391 14.6649 4.15348 14.6549C5.25011 13.8836 6.3472 13.113 7.44211 12.3397C7.56214 12.2549 7.68842 12.2148 7.83469 12.2149C9.91825 12.2162 12.0016 12.216 14.0852 12.2156C14.5978 12.2154 14.9677 11.8496 14.9677 11.3443C14.968 8.85982 14.968 6.37531 14.9677 3.89079C14.9677 3.39769 14.5919 3.02728 14.0924 3.02728C10.3707 3.02712 6.64898 3.02712 2.92744 3.02728C2.41672 3.02728 2.04383 3.39337 2.04367 3.8982C2.04305 6.38272 2.04305 8.86723 2.04367 11.3517C2.04383 11.8473 2.41578 12.2134 2.91838 12.2156C3.1267 12.2165 3.33503 12.2151 3.54351 12.2157C3.8792 12.217 4.09471 12.4309 4.09487 12.7625C4.09503 13.3232 4.09487 13.8839 4.09487 14.4447C4.09471 14.5215 4.09471 14.5984 4.09471 14.6899Z" fill="#CFCFCF"/>
<path d="M15.9045 16.4873C15.9045 16.4448 15.9045 16.4172 15.9045 16.3896C15.9045 15.78 15.9043 15.1705 15.9045 14.5608C15.9045 14.225 16.1197 14.0131 16.4618 14.0123C16.6676 14.0117 16.8733 14.0125 17.0791 14.0122C17.5803 14.0114 17.9551 13.6444 17.9554 13.1501C17.9563 11.7122 17.9558 10.2744 17.9558 8.83664C17.9558 7.79749 17.956 6.75834 17.9557 5.71935C17.9555 5.19862 17.6236 4.85275 17.0971 4.82342C16.7944 4.8066 16.5729 4.57587 16.5857 4.2905C16.5987 4.00096 16.8317 3.79153 17.1358 3.79616C18.1632 3.81144 18.9953 4.6376 18.997 5.66055C19.0011 8.16574 19.0011 10.6709 18.9968 13.1761C18.9951 14.2179 18.1449 15.0408 17.0885 15.0402C17.0447 15.0402 17.0008 15.0402 16.9452 15.0402C16.9452 15.0794 16.9452 15.1117 16.9452 15.1441C16.945 15.9081 16.9456 16.6719 16.9444 17.4358C16.9439 17.7289 16.7922 17.9325 16.5331 17.9879C16.3707 18.0228 16.226 17.9802 16.0914 17.8851C15.4308 17.4181 14.7685 16.9532 14.1068 16.4876C13.4431 16.0206 12.7796 15.5528 12.114 15.0882C12.0731 15.0597 12.0148 15.0422 11.9645 15.0421C10.6465 15.0396 9.32877 15.0404 8.01085 15.0398C7.7322 15.0396 7.522 14.8729 7.47355 14.6173C7.41698 14.3185 7.64296 14.0324 7.95052 14.0139C7.97912 14.0122 8.00772 14.0122 8.03648 14.0122C9.41426 14.012 10.792 14.0126 12.1698 14.0112C12.3136 14.0111 12.4378 14.0512 12.5552 14.1341C13.6504 14.9073 14.7474 15.6782 15.8439 16.4496C15.8587 16.4598 15.8743 16.4684 15.9045 16.4873Z" fill="#CFCFCF"/>
<path d="M8.50553 6.5932C9.00922 6.59428 9.41806 7.00112 9.41587 7.49931C9.41368 7.99196 9 8.39632 8.50146 8.39323C8.00121 8.39015 7.5919 7.98331 7.59425 7.49129C7.59628 6.99787 8.00808 6.59212 8.50553 6.5932Z" fill="#CFCFCF"/>
<path d="M5.90657 7.49361C5.90688 7.98919 5.50117 8.3917 4.99982 8.39324C4.50034 8.39478 4.0901 7.99135 4.08838 7.49685C4.08667 6.99881 4.498 6.5912 5.00029 6.59321C5.50164 6.59521 5.90625 6.99726 5.90657 7.49361Z" fill="#CFCFCF"/>
<path d="M11.1036 7.48428C11.109 6.98917 11.5227 6.58743 12.0205 6.59345C12.5293 6.59962 12.9277 7.0063 12.9224 7.51376C12.9172 7.99946 12.497 8.40104 12.0025 8.39302C11.4999 8.38484 11.0981 7.97862 11.1036 7.48428Z" fill="#CFCFCF"/>
</svg>
