<svg width="20" height="20" viewBox="0 0 20 20" fill="none" xmlns="http://www.w3.org/2000/svg">
<path d="M1 10.5279C1 10.176 1 9.8241 1 9.47222C1.01015 9.42147 1.02707 9.37071 1.03045 9.31996C1.11842 8.06469 1.45 6.87371 2.05564 5.77408C3.4564 3.23986 5.58122 1.68685 8.43011 1.14211C8.77184 1.07782 9.12372 1.04737 9.47222 1C9.8241 1 10.176 1 10.5279 1C10.5718 1.01015 10.6192 1.02707 10.6632 1.03045C11.9185 1.11504 13.1128 1.43985 14.2125 2.05226C17.1696 3.70678 18.7768 6.23762 18.9832 9.62447C19.0847 11.2485 18.7328 12.8016 17.9377 14.2226C16.2865 17.1764 13.7523 18.7768 10.3756 18.9832C8.75154 19.0847 7.20191 18.726 5.77746 17.9411C3.23648 16.5471 1.68685 14.4155 1.14211 11.5666C1.07444 11.2249 1.04737 10.873 1 10.5279ZM17.5926 9.99666C17.5892 5.80792 14.1955 2.41091 10.0034 2.40752C5.81468 2.40076 2.40414 5.8113 2.40752 10.0034C2.41091 14.1922 5.80453 17.5892 9.99327 17.5926C14.1854 17.5959 17.5959 14.1888 17.5926 9.99666Z" fill="#CFCFCF"/>
<path d="M9.29611 11.3094C9.29611 11.0286 9.29273 10.7478 9.29611 10.4669C9.30288 10.0643 9.54311 9.78347 9.94236 9.74964C10.4059 9.70904 10.8153 9.5737 11.1029 9.18798C11.4446 8.73121 11.5055 8.23046 11.2518 7.71617C10.9878 7.18497 10.5412 6.91429 9.94574 6.93459C9.22506 6.96166 8.69724 7.46241 8.6025 8.17971C8.59573 8.24399 8.59235 8.30828 8.58558 8.37257C8.54836 8.76843 8.24047 9.04249 7.85475 9.02558C7.46904 9.00866 7.17467 8.70753 7.18483 8.31166C7.20851 7.31692 7.62806 6.51842 8.46378 5.98045C9.40438 5.37481 10.4025 5.33759 11.3736 5.89248C12.3785 6.46429 12.8488 7.37106 12.7946 8.52482C12.7405 9.65152 11.9488 10.6463 10.8593 10.9981C10.7307 11.0387 10.6867 11.0895 10.6901 11.2282C10.7003 11.5395 10.6969 11.8474 10.6935 12.1587C10.6901 12.5884 10.3924 12.8963 9.98634 12.8963C9.58371 12.8929 9.29273 12.5884 9.28596 12.1553C9.29273 11.8711 9.29611 11.5902 9.29611 11.3094Z" fill="#CFCFCF"/>
<path d="M10.0238 13.4309C10.5144 13.4478 10.8968 13.8538 10.8765 14.3377C10.8562 14.8181 10.4535 15.1937 9.97645 15.1802C9.48585 15.1632 9.10352 14.7572 9.12382 14.2734C9.14074 13.7929 9.54675 13.4174 10.0238 13.4309Z" fill="#CFCFCF"/>
</svg>
