<svg width="22" height="20" viewBox="0 0 22 20" fill="none" xmlns="http://www.w3.org/2000/svg">
<path d="M17.5283 7.68091C17.5283 7.98459 17.5283 8.28827 17.5283 8.59195C18.6764 8.59195 19.8244 8.59195 20.9724 8.59195C20.9724 8.28827 20.9724 7.98459 20.9724 7.68091C19.8244 7.68091 18.6764 7.68091 17.5283 7.68091Z" fill="#CFCFCF" stroke="#CFCFCF" stroke-width="0.25"/>
<path d="M17.9283 9.80603C17.7859 10.0771 17.6434 10.3481 17.501 10.6192C18.5259 11.1178 19.5475 11.6227 20.5724 12.1213C20.7148 11.8502 20.8573 11.5792 20.9997 11.3081C19.9748 10.8095 18.9532 10.3046 17.9283 9.80603Z" fill="#CFCFCF" stroke="#CFCFCF" stroke-width="0.25"/>
<path d="M20.5724 4.15149C19.5475 4.6501 18.5259 5.15498 17.501 5.65359C17.6434 5.92464 17.7859 6.1957 17.9283 6.46675C18.9514 5.96398 19.9767 5.46555 20.9997 4.96277C20.8573 4.69234 20.7148 4.42192 20.5724 4.15149Z" fill="#CFCFCF" stroke="#CFCFCF" stroke-width="0.25"/>
<path d="M12.6655 3.72382C9.86885 4.59809 7.07154 5.47039 4.27475 6.34423C4.22156 6.33594 4.17327 6.31399 4.11793 6.31399H2.04607C1.47518 6.31399 1 6.77218 1 7.32266V10.8913C1 11.4417 1.47518 11.8999 2.04607 11.8999H2.38001L4.6382 18H7.97199L5.95917 12.2077C8.19404 12.6546 10.4289 13.1017 12.6636 13.549V13.5686C12.6636 14.5384 13.5174 15.312 14.5473 15.312C15.5772 15.312 16.431 14.5384 16.431 13.5686V3.74516C16.431 2.7754 15.5772 2 14.5511 2C13.5251 2 12.6782 2.76428 12.6655 3.72382ZM14.5473 2.91083C15.0925 2.91083 15.4864 3.28669 15.4864 3.74516V13.5686C15.4864 14.0271 15.0925 14.4012 14.5473 14.4012C14.0022 14.4012 13.6082 14.0271 13.6082 13.5686V3.74516C13.6082 3.28669 14.0022 2.91083 14.5473 2.91083ZM12.6636 4.6809V12.6186C10.1675 12.1192 7.67129 11.6199 5.17508 11.1207V7.02023C7.67126 6.24045 10.1676 5.46103 12.6636 4.6809ZM2.04607 7.22482H4.11793C4.18186 7.22482 4.2194 7.26101 4.2194 7.32266V8.65154H1.9446V7.32266C1.9446 7.26101 1.98214 7.22482 2.04607 7.22482ZM1.9446 9.56237H4.2194V10.8913C4.2194 10.9529 4.18186 10.9891 4.11793 10.9891H2.04607C1.98214 10.9891 1.9446 10.9529 1.9446 10.8913V9.56237ZM4.26921 11.8697C4.47517 11.9109 4.68131 11.9512 4.88727 11.9924L6.6584 17.0892H5.30422L3.3818 11.8999H4.11793C4.17139 11.8999 4.21775 11.8774 4.26921 11.8697V11.8697Z" fill="#CFCFCF" stroke="#CFCFCF" stroke-width="0.25"/>
</svg>
