<svg width="20" height="20" viewBox="0 0 20 20" fill="none" xmlns="http://www.w3.org/2000/svg">
<g clip-path="url(#clip0_2850_18890)">
<path d="M7.31454 2C7.47074 2 7.62736 2 7.78356 2C8.03414 2.08142 8.291 2.14823 8.53448 2.24803C8.89533 2.39543 9.25074 2.55744 9.60031 2.72947C9.87512 2.86476 10.1299 2.85265 10.4076 2.73156C11.0053 2.47059 11.5712 2.12819 12.2227 2C12.3789 2 12.5355 2 12.6917 2C12.7105 2.00835 12.7285 2.02046 12.7477 2.0238C13.5759 2.16327 14.1297 2.63427 14.4262 3.41427C14.5778 3.81262 14.7307 4.21055 14.8756 4.61141C14.9687 4.86946 15.1391 5.03774 15.3972 5.13043C15.7932 5.27282 16.1862 5.42356 16.5804 5.57179C17.8079 6.0332 18.3262 7.27794 17.7883 8.47424C17.6179 8.85338 17.4504 9.23462 17.2704 9.60917C17.1438 9.87264 17.1417 10.1236 17.2679 10.3879C17.4537 10.7771 17.6458 11.1654 17.7995 11.5679C17.9002 11.831 17.9825 12.1162 17.9958 12.3951C18.0388 13.2904 17.4984 14.0733 16.6435 14.4052C16.2267 14.5673 15.8078 14.7226 15.3876 14.8758C15.1358 14.9677 14.9696 15.1343 14.8777 15.3865C14.7286 15.797 14.572 16.2045 14.4166 16.6125C13.9647 17.8012 12.7114 18.3186 11.552 17.7954C11.1636 17.62 10.7739 17.4467 10.3884 17.2643C10.1307 17.1423 9.88306 17.1386 9.6237 17.2618C9.21984 17.4538 8.81305 17.6396 8.40292 17.8171C7.27403 18.3057 6.03571 17.7833 5.59593 16.6358C5.43764 16.2233 5.28102 15.8103 5.13067 15.3949C5.03754 15.1372 4.86881 14.9673 4.6107 14.8737C4.19013 14.7217 3.77082 14.566 3.35484 14.4023C2.70248 14.1459 2.27481 13.6783 2.07518 13.0056C2.04469 12.902 2.02506 12.7951 2 12.6895C2 12.5333 2 12.3767 2 12.2206C2.12822 11.8657 2.2485 11.5078 2.38758 11.1575C2.49073 10.8969 2.61185 10.6426 2.73589 10.3913C2.86494 10.1286 2.85325 9.87974 2.73756 9.61251C2.4757 9.00872 2.12905 8.43917 2 7.78235C2 7.62618 2 7.4696 2 7.31343C2.00961 7.2842 2.02214 7.25539 2.02798 7.22533C2.17541 6.42737 2.62897 5.88287 3.38533 5.59142C3.79253 5.43442 4.20016 5.27825 4.6107 5.1296C4.86881 5.03607 5.03712 4.86654 5.13067 4.60932C5.29063 4.17005 5.44975 3.72994 5.62725 3.29735C5.88661 2.66517 6.35897 2.26181 7.01342 2.0714C7.11198 2.04259 7.21389 2.02338 7.31454 2ZM7.56095 16.6847C7.67455 16.6509 7.79274 16.6279 7.90008 16.5807C8.29977 16.4049 8.69653 16.2212 9.09371 16.04C9.68593 15.7698 10.2802 15.7585 10.8762 16.0254C11.2893 16.2103 11.6994 16.4012 12.1129 16.5849C12.561 16.7841 12.9887 16.6066 13.1658 16.1485C13.3232 15.741 13.4769 15.3326 13.6281 14.923C13.862 14.2879 14.2951 13.8562 14.9307 13.6236C15.3262 13.4791 15.7205 13.3309 16.1139 13.1814C16.6205 12.9893 16.7943 12.5713 16.5729 12.0782C16.3921 11.6748 16.2066 11.2736 16.0266 10.8702C15.7685 10.2915 15.7685 9.71063 16.0266 9.1319C16.2045 8.73313 16.3875 8.33645 16.5671 7.9381C16.7968 7.42868 16.623 7.01321 16.0972 6.8157C15.703 6.66747 15.3083 6.52049 14.914 6.37351C14.2921 6.14134 13.8641 5.71543 13.6318 5.09327C13.479 4.68407 13.3278 4.27444 13.1712 3.8669C12.9883 3.38963 12.5635 3.21509 12.0974 3.42429C11.6894 3.60718 11.2838 3.7955 10.8754 3.97756C10.2794 4.24354 9.68468 4.23227 9.09246 3.96252C8.70906 3.78798 8.32649 3.61219 7.94226 3.43932C7.42939 3.20841 7.01383 3.38003 6.81712 3.90323C6.65967 4.32162 6.5089 4.74252 6.34477 5.15841C6.11882 5.73088 5.71454 6.13049 5.13986 6.35221C4.71804 6.51506 4.29329 6.67123 3.87022 6.83198C3.39243 7.01362 3.21368 7.4387 3.42167 7.90302C3.59791 8.29678 3.77708 8.6897 3.95792 9.08137C4.24067 9.69518 4.23983 10.3077 3.95792 10.9216C3.77583 11.3186 3.5929 11.7153 3.4154 12.1141C3.21702 12.5605 3.39911 12.9893 3.85727 13.1643C4.26531 13.32 4.67335 13.4753 5.08306 13.6265C5.71245 13.8591 6.14179 14.2883 6.37525 14.9163C6.53104 15.3356 6.68598 15.7548 6.84719 16.1719C6.96998 16.488 7.23393 16.6676 7.56095 16.6847Z" fill="#CFCFCF"/>
<path d="M7.3042 12.6498C7.36476 12.5154 7.40318 12.3646 7.48922 12.2494C8.80898 10.4802 10.1342 8.71517 11.4602 6.95057C11.697 6.63573 12.0963 6.57602 12.4003 6.79899C12.7031 7.02113 12.7603 7.43577 12.521 7.75562C11.5892 9.00245 10.6541 10.2468 9.71986 11.4915C9.32644 12.0164 8.93469 12.5425 8.53751 13.0645C8.37254 13.2816 8.14826 13.3722 7.87637 13.3192C7.61952 13.2686 7.4487 13.115 7.36852 12.8653C7.34805 12.8018 7.34388 12.7333 7.33218 12.6669C7.32258 12.6611 7.31339 12.6553 7.3042 12.6498Z" fill="#CFCFCF"/>
<path d="M6.66699 8.00031C6.66783 7.27125 7.26882 6.66955 7.99886 6.66621C8.73267 6.66329 9.34494 7.27793 9.337 8.00949C9.32907 8.74189 8.72473 9.34025 7.99719 9.33608C7.26673 9.33148 6.66616 8.72853 6.66699 8.00031Z" fill="#CFCFCF"/>
<path d="M13.339 12.0022C13.3386 12.7317 12.738 13.3334 12.0072 13.3363C11.2742 13.3396 10.6611 12.7237 10.669 11.9926C10.677 11.2606 11.2817 10.6618 12.0088 10.6664C12.7401 10.6714 13.3394 11.2731 13.339 12.0022Z" fill="#CFCFCF"/>
</g>
<defs>
<clipPath id="clip0_2850_18890">
<rect width="16" height="16" fill="white" transform="translate(2 2)"/>
</clipPath>
</defs>
</svg>
