<svg width="20" height="18" viewBox="0 0 20 18" fill="none" xmlns="http://www.w3.org/2000/svg">
<path d="M18.998 5.55249C18.998 5.25294 18.9985 4.95339 18.997 4.65384C18.9965 4.59024 18.9882 4.49751 18.9498 4.41498C18.7651 4.01784 18.5789 3.62119 18.3928 3.22454C18.0997 2.60019 17.7969 1.95448 17.5038 1.31751C17.4014 1.09467 17.2507 1 16.9985 1C16.998 1 16.998 1 16.9975 1C12.4937 1.00437 7.78163 1.00437 2.9912 1.00049C2.99071 1.00049 2.99071 1.00049 2.99022 1.00049C2.74545 1.00049 2.59869 1.09273 2.49921 1.30878C2.19436 1.97099 1.87917 2.64243 1.57432 3.29154C1.39998 3.66294 1.22564 4.03435 1.05228 4.40575C1.01978 4.47566 1.00155 4.55383 1.00106 4.62617L1.00057 4.71647C0.998599 5.27673 0.996137 5.85593 1.00352 6.4259C1.00993 6.92159 1.21923 7.32261 1.62554 7.61876C1.71615 7.68479 1.74324 7.74062 1.74324 7.85811C1.74029 10.3084 1.74078 12.7995 1.74078 15.209V16.5063C1.74078 16.9019 1.82746 16.9874 2.22932 16.9874H9.9141V17H10.5144C10.6903 17 10.8656 17 11.0414 17C11.2492 17 11.4566 17 11.6644 16.9995C13.5684 16.9961 15.4728 16.9917 17.3768 16.9874L17.821 16.9864C17.8589 16.9864 17.8983 16.9864 17.9382 16.982C18.1076 16.9621 18.2105 16.8597 18.2273 16.6932C18.2332 16.632 18.2332 16.5708 18.2327 16.5121V16.4684C18.2327 13.604 18.2327 10.7395 18.2327 7.87511V7.85763C18.2322 7.76101 18.2352 7.71586 18.3046 7.66926C18.7675 7.35757 19.001 6.91091 18.9985 6.34288C18.9975 6.07926 18.9975 5.81563 18.998 5.55249ZM15.5186 9.96177V16.3164H11.8698V9.96177H15.5186ZM1.85356 4.24845C1.9427 4.05911 2.03381 3.86977 2.12246 3.68576C2.37018 3.17114 2.62578 2.63855 2.84198 2.10353C2.98579 1.74669 3.16013 1.63648 3.58317 1.63648C3.58662 1.63648 3.59056 1.63648 3.59401 1.63648C7.66589 1.65493 11.8057 1.65008 15.8097 1.64571L16.7552 1.64474C16.7557 1.64474 16.7557 1.64474 16.7562 1.64474C16.8971 1.64474 16.9508 1.67727 17.0044 1.79621C17.2669 2.37444 17.5412 2.95849 17.8067 3.52361C17.9057 3.73383 18.0042 3.94405 18.1027 4.15475C18.117 4.18485 18.1308 4.21544 18.145 4.24845H1.85356ZM16.5307 6.47494C16.5179 6.10742 16.5208 5.74572 16.5238 5.36267C16.5248 5.2209 16.5257 5.07817 16.5262 4.93446H18.3258C18.3263 5.0869 18.3292 5.23935 18.3317 5.38743C18.3391 5.79427 18.346 6.17878 18.3154 6.56815C18.2824 6.98665 17.8628 7.30805 17.3773 7.2828C16.9251 7.25998 16.5449 6.8978 16.5307 6.47494ZM11.2074 16.1863C11.2074 16.2586 11.1995 16.3023 11.1823 16.3193C11.1655 16.3363 11.1227 16.3431 11.0473 16.3441C9.28667 16.3402 7.50337 16.3397 5.74913 16.3397C5.21577 16.3397 4.68487 16.3397 4.1584 16.3397H2.40662V7.93482C2.98086 7.96444 3.44971 7.7649 3.80233 7.34155C4.14609 7.7382 4.54992 7.93239 5.03355 7.93385C5.03552 7.93385 5.03749 7.93385 5.03946 7.93385C5.53342 7.93385 5.93972 7.74014 6.27905 7.34203C6.62527 7.74014 7.03108 7.93385 7.51618 7.93385C7.51765 7.93385 7.51913 7.93385 7.52061 7.93385C8.01457 7.93239 8.42038 7.7382 8.75823 7.34058C9.10051 7.73917 9.50582 7.93337 9.99536 7.93337C9.9988 7.93337 10.0023 7.93337 10.0057 7.93337C10.4923 7.93094 10.9045 7.73334 11.231 7.3464C11.5693 7.73237 12.0146 7.93968 12.4942 7.93434C12.9641 7.92851 13.4044 7.71489 13.7161 7.34592C14.0594 7.73917 14.475 7.93822 14.9586 7.93385C15.4477 7.93094 15.8624 7.7314 16.1918 7.34009C16.5513 7.76247 17.0128 7.96201 17.5664 7.93239V16.3242H16.1928V9.76417C16.1928 9.39374 16.1002 9.30344 15.7205 9.30295C14.375 9.30246 13.0296 9.30295 11.6841 9.30295C11.2876 9.30295 11.202 9.38597 11.202 9.77145L11.2015 11.0177C11.2024 12.7121 11.202 14.4633 11.2074 16.1863ZM5.94465 6.41619C5.94219 6.89877 5.55066 7.28086 5.05374 7.28523C4.8075 7.28717 4.57603 7.19638 4.40218 7.02792C4.23424 6.86527 4.14067 6.64923 4.1387 6.41959C4.13574 6.06421 4.13624 5.71562 4.13722 5.34616C4.13722 5.20925 4.13771 5.07088 4.13771 4.93155H5.93923C5.94219 4.95631 5.94416 4.97961 5.94416 5.00194L5.94465 5.21216C5.94613 5.60687 5.94711 6.01517 5.94465 6.41619ZM8.4189 6.40503C8.41595 6.89004 8.04511 7.26824 7.55607 7.28426C7.05471 7.30125 6.63462 6.93082 6.61739 6.4594C6.60409 6.09674 6.60704 5.73941 6.61049 5.36121C6.61148 5.21944 6.61295 5.07719 6.61295 4.933H8.4194V5.76563C8.41989 5.97876 8.42038 6.19189 8.4189 6.40503ZM10.8996 6.38755C10.8956 6.89829 10.5095 7.28426 10.0013 7.28523C10.0008 7.28523 9.99979 7.28523 9.9993 7.28523C9.48957 7.28523 9.10248 6.90169 9.09903 6.39192C9.09657 6.0375 9.09755 5.67678 9.09805 5.3282L9.09854 5.03253C9.09854 5.00146 9.10051 4.97038 9.10297 4.93446H10.8937C10.8966 4.96747 10.8991 4.99854 10.8991 5.02816L10.8996 5.30392C10.901 5.6593 10.902 6.02682 10.8996 6.38755ZM13.3876 5.6093C13.3891 5.87729 13.3906 6.15402 13.3842 6.42542C13.3723 6.90848 12.9591 7.29445 12.4578 7.28523C11.9589 7.276 11.5812 6.89732 11.5797 6.40405C11.5782 6.02391 11.5792 5.63746 11.5802 5.26314L11.5807 4.93349H13.3861V5.24615C13.3866 5.36703 13.3871 5.48792 13.3876 5.6093ZM15.8599 6.39871C15.8584 6.64 15.7639 6.8643 15.5935 7.02986C15.424 7.19493 15.197 7.28523 14.9537 7.28523C14.9517 7.28523 14.9493 7.28523 14.9468 7.28523C14.4469 7.28183 14.0544 6.89343 14.0535 6.40066C14.0525 6.04867 14.0525 5.69669 14.053 5.33839V4.93155H15.8555C15.8579 4.95631 15.8599 4.98009 15.8599 5.00291L15.8604 5.2612C15.8614 5.63406 15.8624 6.01954 15.8599 6.39871ZM1.6605 5.35344C1.66149 5.21459 1.66198 5.07525 1.66247 4.93543H3.47089C3.47138 5.08011 3.47286 5.2243 3.47433 5.36752C3.47827 5.75349 3.48221 6.1181 3.46498 6.48902C3.4438 6.94101 3.02715 7.29834 2.53762 7.28474C2.05991 7.27212 1.67626 6.90509 1.66493 6.44969C1.65607 6.08605 1.65804 5.73019 1.6605 5.35344Z" fill="#CFCFCF" stroke="#CFCFCF" stroke-width="0.125"/>
<path d="M9.85143 9.17096C7.82435 9.17096 5.79727 9.17096 3.7702 9.17096C3.39049 9.17096 3.29199 9.27 3.29199 9.6516V14.3565C3.29199 14.7653 3.38015 14.8537 3.78842 14.8542C4.51385 14.8542 5.23929 14.8542 5.96423 14.8542H6.81032H7.65888C7.94156 14.8542 8.22376 14.8542 8.50645 14.8542C8.95461 14.8542 9.40277 14.8542 9.85094 14.8537C10.2262 14.8537 10.3287 14.7542 10.3287 14.3925C10.3287 12.8059 10.3287 11.2193 10.3287 9.63315C10.3291 9.27049 10.2267 9.17144 9.85143 9.17096ZM9.65345 9.82589V14.1924H3.96473V9.82589H9.65345Z" fill="#CFCFCF" stroke="#CFCFCF" stroke-width="0.125"/>
</svg>
