<svg width="20" height="16" viewBox="0 0 20 16" fill="none" xmlns="http://www.w3.org/2000/svg">
<path d="M4.58398 12.168C5.27434 12.168 5.83398 11.6083 5.83398 10.918C5.83398 10.2276 5.27434 9.66797 4.58398 9.66797C3.89363 9.66797 3.33398 10.2276 3.33398 10.918C3.33398 11.6083 3.89363 12.168 4.58398 12.168Z" fill="#CFCFCF"/>
<path d="M17.5 0.5H2.5C1.83696 0.5 1.20107 0.763392 0.732233 1.23223C0.263392 1.70107 0 2.33696 0 3L0 15.5H20V3C20 2.33696 19.7366 1.70107 19.2678 1.23223C18.7989 0.763392 18.163 0.5 17.5 0.5ZM2.5 2.16667H17.5C17.721 2.16667 17.933 2.25446 18.0893 2.41074C18.2455 2.56702 18.3333 2.77899 18.3333 3V4.66667H1.66667V3C1.66667 2.77899 1.75446 2.56702 1.91074 2.41074C2.06702 2.25446 2.27899 2.16667 2.5 2.16667ZM1.66667 13.8333V6.33333H18.3333V13.8333H1.66667Z" fill="#CFCFCF"/>
</svg>
