<svg width="190" height="37" viewBox="0 0 190 37" fill="none" xmlns="http://www.w3.org/2000/svg">
<path d="M36.2324 28.9362C36.9183 24.0169 33.2791 20.749 31.1908 18.8442C30.8063 18.4947 30.4219 18.1539 30.0461 17.8175C29.1505 17.0267 28.5389 16.4894 28.1675 16.1617C27.5734 15.6418 27.0142 15.1612 26.5161 14.7375C25.7953 14.104 25.0482 13.4356 24.3361 12.754V12.7496C22.6366 11.0589 17.6648 6.42793 23.589 4.16051C28.7704 2.57899 36.5382 7.18811 36.5382 7.18811C36.5382 7.18811 36.5339 7.18812 36.5339 7.18375C31.8592 0.573693 24.3841 -0.0991137 22.2478 0.0101073C16.0746 0.324664 13.0339 2.58335 10.4694 6.92597L26.6647 24.0344C27.1977 24.6722 27.6083 25.2838 27.8617 25.8649C28.4952 27.3197 28.2855 28.6784 27.2326 29.9367C25.7079 31.7585 20.2862 34.7118 8.25 29.194C8.59514 29.6527 8.99707 30.0983 9.44706 30.5265C13.1999 34.1045 20.3036 36.455 26.219 36.2147C27.4467 36.1448 28.6656 35.9919 29.8452 35.638C34.6858 33.8992 35.9222 30.7624 36.2324 28.9362Z" fill="white"/>
<path d="M18.9682 19.0753L11.017 19.1146L13.8261 13.6929L9.37864 8.95703L4.28021 18.7782L3.26227 20.7398C-0.984245 29.7221 -0.892499 31.5963 2.42345 35.5283L8.37381 24.1912L23.8046 24.1781L18.9682 19.0753Z" fill="white"/>
<path d="M55.6489 2.18759C55.1639 1.86867 54.6266 1.70703 54.0411 1.70703C53.447 1.70703 52.9052 1.86867 52.4334 2.18759C51.931 2.52836 51.5727 2.99147 51.3718 3.56379L45.2598 20.6285H49.0607L50.7252 15.9931H57.3615L59.026 20.6285H62.8269L56.7149 3.56379C56.5095 2.99147 56.1513 2.52836 55.6489 2.18759ZM56.1819 12.7078H51.9004L54.0411 6.7312L56.1819 12.7078Z" fill="white"/>
<path d="M72.0327 5.28949C74.0293 5.28949 75.5278 6.31615 76.62 8.42194L76.7117 8.5967L79.8791 6.97149L79.7874 6.79673C78.053 3.41961 75.4404 1.70703 72.0283 1.70703C69.3197 1.70703 67.0697 2.62887 65.3396 4.4463C63.662 6.22442 62.8145 8.49184 62.8145 11.1787C62.8145 13.8568 63.6664 16.1155 65.3396 17.898C67.061 19.7154 69.3109 20.6372 72.0283 20.6372C75.4404 20.6372 78.0486 18.9203 79.7874 15.5344L79.8791 15.3597L76.7117 13.7301L76.62 13.9048C75.5278 16.0194 74.0293 17.0504 72.0327 17.0504C70.3289 17.0504 68.9439 16.4824 67.9129 15.3597C66.9124 14.2762 66.4013 12.8694 66.4013 11.1787C66.4013 9.47919 66.9081 8.06807 67.9129 6.9846C68.9483 5.85744 70.3332 5.28949 72.0327 5.28949Z" fill="white"/>
<path d="M95.4882 9.37826H91.8009C91.2373 9.37826 90.7655 9.18165 90.3636 8.78409C89.9529 8.37342 89.7563 7.90595 89.7563 7.34674C89.7563 6.77442 89.9529 6.29385 90.3636 5.88755C90.7655 5.48561 91.2329 5.29339 91.8009 5.29339H99.4158V1.71094H91.8009C90.2587 1.71094 88.9218 2.26579 87.8209 3.358C86.7287 4.45895 86.1738 5.80017 86.1738 7.35111C86.1738 8.89331 86.7287 10.2302 87.8209 11.3224C88.9218 12.4146 90.2631 12.9694 91.8009 12.9694H95.4882C96.0518 12.9694 96.5236 13.166 96.9255 13.5767C97.3318 13.9786 97.5328 14.4461 97.5328 15.0097C97.5328 15.5733 97.3362 16.0495 96.9255 16.4601C96.5236 16.8621 96.0561 17.0543 95.4882 17.0543H86.7112V20.6368H95.4882C97.0304 20.6368 98.3673 20.0819 99.4682 18.9897C100.56 17.8888 101.115 16.5475 101.115 15.0097C101.115 13.4675 100.56 12.135 99.4682 11.0428C98.3716 9.93747 97.0304 9.37826 95.4882 9.37826Z" fill="white"/>
<path d="M104.365 2.51923C103.814 3.0697 103.539 3.7294 103.539 4.48958V20.6324H114.78V17.05H107.122V12.9651H112.731V9.38267H107.122V5.29344H114.78V1.71099H106.322C105.562 1.70662 104.902 1.98186 104.365 2.51923Z" fill="white"/>
<path d="M128.051 11.8423C128.837 11.484 129.462 10.8899 129.908 10.0729C130.358 9.27777 130.585 8.3909 130.585 7.43849C130.585 5.82639 129.947 4.43709 128.689 3.32304C127.496 2.25267 126.046 1.71094 124.381 1.71094H119.654C118.894 1.71094 118.234 1.98618 117.697 2.52355C117.146 3.07402 116.871 3.73371 116.871 4.49389V20.6368H120.454V13.0306H123.625C124.477 13.0306 125.255 13.5155 125.936 14.4723C126.753 15.6126 127.168 17.0412 127.168 18.7232V20.6368H130.751V18.8237C130.751 17.5349 130.532 16.2373 130.1 14.9704C129.611 13.4893 128.92 12.4408 128.051 11.8423ZM126.998 7.43849C126.998 8.05887 126.775 8.56129 126.321 8.96759C125.805 9.42632 125.15 9.66223 124.377 9.66223H120.449V5.29339H124.377C125.141 5.29339 125.792 5.52494 126.308 5.98804C126.775 6.39434 126.998 6.87054 126.998 7.43849Z" fill="white"/>
<path d="M141.182 15.6751L136.079 1.83465L136.031 1.70359H132.217L138.512 18.7989C138.722 19.3581 139.08 19.8081 139.574 20.1357C140.059 20.4634 140.601 20.6294 141.182 20.6294C141.758 20.6294 142.296 20.4634 142.776 20.1357C143.279 19.8081 143.637 19.3537 143.838 18.7945L150.133 1.69922H146.319L141.182 15.6751Z" fill="white"/>
<path d="M155.926 1.70312H152.344V20.6289H155.926V1.70312Z" fill="white"/>
<path d="M168.207 5.29339C170.203 5.29339 171.702 6.32006 172.794 8.42584L172.886 8.60061L176.053 6.9754L175.961 6.80063C174.227 3.42352 171.614 1.71094 168.202 1.71094C165.493 1.71094 163.244 2.63277 161.513 4.45021C159.836 6.22833 158.988 8.49574 158.988 11.1826C158.988 13.8607 159.84 16.1194 161.513 17.9019C163.235 19.7193 165.485 20.6411 168.202 20.6411C171.614 20.6411 174.222 18.9242 175.961 15.5383L176.053 15.3636L172.886 13.734L172.794 13.9087C171.702 16.0233 170.203 17.0543 168.207 17.0543C166.503 17.0543 165.118 16.4864 164.087 15.3636C163.086 14.2801 162.575 12.8733 162.575 11.1826C162.575 9.4831 163.082 8.07198 164.087 6.9885C165.118 5.86134 166.503 5.29339 168.207 5.29339Z" fill="white"/>
<path d="M189.909 5.29339V1.71094H181.451C180.691 1.71094 180.031 1.98618 179.494 2.52355C178.943 3.07402 178.668 3.73371 178.668 4.49389V20.6368H189.909V17.0543H182.25V12.9694H187.86V9.38699H182.25V5.29775H189.909V5.29339Z" fill="white"/>
<path d="M45.2578 28.435H46.1709V29.3481C46.5248 28.7409 47.2675 28.3477 48.0888 28.3477C49.8669 28.3477 50.8499 29.5928 50.8499 31.2092C50.8499 32.8257 49.8451 34.0708 48.067 34.0708C47.2587 34.0708 46.516 33.6864 46.1753 33.0922V36.229H45.2622V28.435H45.2578ZM49.9019 31.2049C49.9019 29.951 49.1505 29.1384 47.9971 29.1384C46.8437 29.1384 46.0923 29.951 46.0923 31.2049C46.0923 32.4587 46.8437 33.2757 47.9971 33.2757C49.1505 33.2757 49.9019 32.4631 49.9019 31.2049Z" fill="white"/>
<path d="M56.708 29.2195C55.5459 29.2195 55.2139 30.2331 55.2139 31.5394V33.9816H54.3008V28.4375H55.2139V29.5603C55.4542 28.8001 55.9347 28.4375 56.7779 28.4375H57.5075V29.2195H56.708Z" fill="white"/>
<path d="M60.1699 31.2093C60.1699 29.536 61.3888 28.3477 63.0883 28.3477C64.8009 28.3477 66.0198 29.536 66.0198 31.2093C66.0198 32.8694 64.8009 34.0708 63.0883 34.0708C61.3888 34.0708 60.1699 32.8738 60.1699 31.2093ZM65.0849 31.2093C65.0849 29.9991 64.2766 29.1428 63.0883 29.1428C61.9131 29.1428 61.1049 29.9991 61.1049 31.2093C61.1049 32.4194 61.9131 33.2801 63.0883 33.2801C64.2766 33.2801 65.0849 32.4238 65.0849 31.2093Z" fill="white"/>
<path d="M68.6738 28.4375H69.6219L71.2514 32.885L72.881 28.4375H73.8378L71.7276 33.9816H70.7796L68.6738 28.4375Z" fill="white"/>
<path d="M78.0075 26.1562V27.3883H76.959V26.1562H78.0075ZM77.0289 28.4368H77.942V33.9808H77.0289V28.4368Z" fill="white"/>
<path d="M81.3965 31.2066C81.3965 29.5902 82.3795 28.345 84.1707 28.345C84.9789 28.345 85.7347 28.7426 86.0755 29.3368V26.1562H86.9886V33.9808H86.0755V33.0678C85.7347 33.6707 84.9789 34.0682 84.1707 34.0682C82.3751 34.0682 81.3965 32.8275 81.3965 31.2066ZM86.1498 31.2066C86.1498 29.9528 85.3983 29.1402 84.245 29.1402C83.0916 29.1402 82.327 29.9528 82.327 31.2066C82.327 32.4605 83.0916 33.2775 84.245 33.2775C85.3983 33.2775 86.1498 32.4649 86.1498 31.2066Z" fill="white"/>
<path d="M95.9644 32.1966C95.7722 33.3281 94.7542 34.0665 93.33 34.0665C91.6305 34.0665 90.4902 32.7558 90.4902 31.1743C90.4902 29.5447 91.5388 28.3477 93.2295 28.3477C94.9071 28.3477 95.912 29.4704 95.912 30.9427C95.912 31.0651 95.8989 31.2486 95.8901 31.3272H91.3946C91.4645 32.4718 92.2509 33.2844 93.3343 33.2844C94.2693 33.2844 94.8634 32.8869 95.0469 32.1966H95.9644ZM91.4339 30.6238H94.9683C94.8984 29.6889 94.2474 29.0947 93.2208 29.0947C92.2552 29.0947 91.6043 29.6452 91.4339 30.6238Z" fill="white"/>
<path d="M105.374 33.0678V33.9808H104.461V26.1562H105.374V29.3368C105.728 28.7426 106.471 28.345 107.279 28.345C109.07 28.345 110.053 29.5902 110.053 31.2066C110.053 32.8231 109.07 34.0682 107.279 34.0682C106.479 34.0682 105.728 33.675 105.374 33.0678ZM109.114 31.2066C109.114 29.9528 108.362 29.1402 107.196 29.1402C106.042 29.1402 105.291 29.9528 105.291 31.2066C105.291 32.4605 106.042 33.2775 107.196 33.2775C108.362 33.2775 109.114 32.4649 109.114 31.2066Z" fill="white"/>
<path d="M118.65 32.1966C118.458 33.3281 117.44 34.0665 116.016 34.0665C114.316 34.0665 113.176 32.7558 113.176 31.1743C113.176 29.5447 114.224 28.3477 115.915 28.3477C117.593 28.3477 118.598 29.4704 118.598 30.9427C118.598 31.0651 118.584 31.2486 118.576 31.3272H114.08C114.15 32.4718 114.936 33.2844 116.02 33.2844C116.955 33.2844 117.549 32.8869 117.732 32.1966H118.65ZM114.119 30.6238H117.654C117.584 29.6889 116.933 29.0947 115.906 29.0947C114.941 29.0947 114.294 29.6452 114.119 30.6238Z" fill="white"/>
<path d="M121.752 32.1966H122.63C122.709 32.9131 123.211 33.2975 124.046 33.2975C124.762 33.2975 125.243 32.9131 125.243 32.4631C125.243 30.8117 121.9 32.2971 121.9 29.8986C121.9 28.9637 122.722 28.3477 123.932 28.3477C125.199 28.3477 126.055 29.0205 126.121 30.0428H125.23C125.151 29.3394 124.43 29.0947 123.906 29.0947C123.233 29.0947 122.787 29.4049 122.787 29.8855C122.787 31.3796 126.151 29.8942 126.151 32.4369C126.151 33.4286 125.308 34.0665 124.041 34.0665C122.713 34.0665 121.844 33.3543 121.752 32.1966Z" fill="white"/>
<path d="M131.153 26.6641V28.4378H132.923V29.2198H131.153V32.2256C131.153 32.8416 131.52 33.2042 132.075 33.2042H132.918V33.9862H132.04C130.943 33.9862 130.24 33.3265 130.24 32.2474V29.2198H129.043V28.4378H130.24V26.6641H131.153Z" fill="white"/>
<path d="M140.893 32.1966H141.771C141.849 32.9131 142.352 33.2975 143.186 33.2975C143.903 33.2975 144.383 32.9131 144.383 32.4631C144.383 30.8117 141.041 32.2971 141.041 29.8986C141.041 28.9637 141.862 28.3477 143.073 28.3477C144.34 28.3477 145.196 29.0205 145.261 30.0428H144.37C144.292 29.3394 143.571 29.0947 143.046 29.0947C142.374 29.0947 141.928 29.4049 141.928 29.8855C141.928 31.3796 145.292 29.8942 145.292 32.4369C145.292 33.4286 144.449 34.0665 143.182 34.0665C141.854 34.0665 140.984 33.3543 140.893 32.1966Z" fill="white"/>
<path d="M153.933 32.1966C153.741 33.3281 152.723 34.0665 151.299 34.0665C149.599 34.0665 148.459 32.7558 148.459 31.1743C148.459 29.5447 149.508 28.3477 151.198 28.3477C152.876 28.3477 153.881 29.4704 153.881 30.9427C153.881 31.0651 153.868 31.2486 153.859 31.3272H149.363C149.433 32.4718 150.22 33.2844 151.303 33.2844C152.238 33.2844 152.832 32.8869 153.016 32.1966H153.933ZM149.403 30.6238H152.937C152.867 29.6889 152.216 29.0947 151.19 29.0947C150.224 29.0947 149.573 29.6452 149.403 30.6238Z" fill="white"/>
<path d="M159.794 29.2195C158.632 29.2195 158.3 30.2331 158.3 31.5394V33.9816H157.387V28.4375H158.3V29.5603C158.54 28.8001 159.021 28.4375 159.864 28.4375H160.593V29.2195H159.794Z" fill="white"/>
<path d="M163.24 28.4375H164.188L165.818 32.885L167.447 28.4375H168.404L166.294 33.9816H165.346L163.24 28.4375Z" fill="white"/>
<path d="M172.57 26.1562V27.3883H171.521V26.1562H172.57ZM171.591 28.4368H172.504V33.9808H171.591V28.4368Z" fill="white"/>
<path d="M175.959 31.2093C175.959 29.7238 176.942 28.3477 178.755 28.3477C180.044 28.3477 181.197 29.0729 181.368 30.3049H180.468C180.354 29.6321 179.633 29.1384 178.768 29.1384C177.514 29.1384 176.907 30.0734 176.907 31.2049C176.907 32.3364 177.523 33.2757 178.768 33.2757C179.633 33.2757 180.262 32.8563 180.468 32.1879H181.359C181.167 33.3194 180.219 34.0708 178.759 34.0708C176.938 34.0708 175.959 32.699 175.959 31.2093Z" fill="white"/>
<path d="M189.91 32.1966C189.717 33.3281 188.7 34.0665 187.275 34.0665C185.576 34.0665 184.436 32.7558 184.436 31.1743C184.436 29.5447 185.484 28.3477 187.175 28.3477C188.852 28.3477 189.857 29.4704 189.857 30.9427C189.857 31.0651 189.844 31.2486 189.835 31.3272H185.34C185.41 32.4718 186.196 33.2844 187.28 33.2844C188.215 33.2844 188.809 32.8869 188.992 32.1966H189.91ZM185.379 30.6238H188.914C188.844 29.6889 188.193 29.0947 187.166 29.0947C186.201 29.0947 185.55 29.6452 185.379 30.6238Z" fill="white"/>
</svg>
