<svg width="20" height="20" viewBox="0 0 20 20" fill="none" xmlns="http://www.w3.org/2000/svg">
<g clip-path="url(#clip0_2850_18677)">
<path d="M12.2089 14.7159C12.2951 14.8975 12.3681 15.0503 12.4432 15.2009C12.6931 15.7169 12.9473 16.2307 13.1905 16.749C13.2369 16.8486 13.2922 16.8796 13.3983 16.8752C13.6061 16.8664 13.8162 16.8708 14.024 16.873C14.1876 16.8752 14.2716 16.9461 14.276 17.079C14.2782 17.2141 14.1964 17.2872 14.0306 17.2894C13.8493 17.2916 13.6703 17.2894 13.4602 17.2894C13.5288 17.4355 13.584 17.5529 13.6415 17.6725C13.7852 17.9715 13.9333 18.2683 14.0748 18.5695C14.1942 18.8242 14.0859 18.9637 13.8073 18.9947C13.5177 19.0257 13.3718 18.9216 13.2613 18.6536C13.0888 18.2328 12.8677 17.8342 12.6754 17.4223C12.6312 17.327 12.5803 17.2894 12.472 17.2894C10.8271 17.2938 9.18449 17.2938 7.53963 17.2894C7.43351 17.2894 7.37824 17.3204 7.33402 17.4178C7.10852 17.8984 6.87196 18.3724 6.64425 18.8507C6.59782 18.9482 6.54476 19.0058 6.42758 18.9903C6.34799 18.9792 6.26619 18.9881 6.1866 18.9881C5.91909 18.9858 5.81297 18.8175 5.93015 18.5717C6.10038 18.2129 6.27504 17.8586 6.44748 17.502C6.47622 17.44 6.50275 17.378 6.54255 17.2916C6.33694 17.2916 6.15786 17.2938 5.97879 17.2916C5.81519 17.2894 5.73117 17.2185 5.73117 17.0856C5.73117 16.9505 5.81519 16.8774 5.97879 16.8774C6.20429 16.8752 6.42758 16.8796 6.65309 16.873C6.69731 16.8708 6.76363 16.8442 6.78132 16.811C7.11515 16.1289 7.44235 15.4423 7.77177 14.7579C7.77398 14.7535 7.76956 14.7491 7.76514 14.7203C7.71429 14.7203 7.65902 14.7203 7.60375 14.7203C5.61621 14.7203 3.63089 14.7203 1.64335 14.7203C1.55713 14.7203 1.47091 14.7225 1.3869 14.7159C1.15697 14.6959 1 14.521 1 14.2951C1 14.0692 1.15697 13.892 1.38026 13.8765C1.50186 13.8676 1.62566 13.8676 1.74947 13.8743C1.84233 13.8787 1.8777 13.841 1.86886 13.7525C1.86664 13.7148 1.86886 13.6772 1.86886 13.6395C1.86886 10.0672 1.86886 6.49481 1.86886 2.92246C1.86886 2.85824 1.86886 2.79401 1.86886 2.70542C1.76274 2.70542 1.66988 2.70764 1.57703 2.70542C1.32499 2.69656 1.14149 2.52381 1.13707 2.28462C1.13265 2.05651 1.30288 1.8749 1.54607 1.85275C1.59913 1.84832 1.65219 1.85054 1.70747 1.85054C4.24992 1.85054 6.79458 1.85054 9.33703 1.85054C9.40999 1.85054 9.48516 1.85054 9.58244 1.85054C9.58244 1.69551 9.57802 1.5582 9.58244 1.41867C9.59128 1.16397 9.76372 0.995656 10.0113 1.00009C10.2479 1.0023 10.4137 1.17283 10.4203 1.4231C10.4226 1.55598 10.4203 1.68886 10.4203 1.83947C10.5088 1.84389 10.5817 1.85054 10.6525 1.85054C13.2502 1.85054 15.8457 1.85054 18.4434 1.85054C18.5186 1.85054 18.5938 1.85275 18.6667 1.86604C18.89 1.91034 19.016 2.08751 18.9984 2.32449C18.9829 2.52603 18.8149 2.69213 18.607 2.70099C18.4589 2.70764 18.3086 2.70321 18.1406 2.70321C18.1383 2.77186 18.1317 2.82723 18.1317 2.88481C18.1317 6.47931 18.1317 10.0716 18.1317 13.6661C18.1317 13.8721 18.1317 13.8721 18.344 13.8721C18.4191 13.8721 18.4943 13.8698 18.5695 13.8721C18.7994 13.8809 18.9718 14.0581 18.974 14.2862C18.9762 14.5165 18.8104 14.6981 18.5827 14.7136C18.5297 14.7181 18.4766 14.7159 18.4213 14.7159C16.4139 14.7159 14.4065 14.7159 12.3968 14.7159C12.346 14.7159 12.2951 14.7159 12.2089 14.7159ZM2.71781 2.70985C2.7156 2.77629 2.71118 2.82502 2.71118 2.87153C2.71118 6.47488 2.71118 10.0804 2.70897 13.6838C2.70897 13.8278 2.74434 13.8743 2.89689 13.8743C7.62364 13.8698 12.3526 13.8721 17.0794 13.8721C17.2916 13.8721 17.2916 13.8721 17.2916 13.6661C17.2916 10.0716 17.2916 6.47931 17.2916 2.88481C17.2916 2.82723 17.2872 2.77186 17.285 2.70985C12.4211 2.70985 7.57722 2.70985 2.71781 2.70985ZM12.3836 16.8641C12.3725 16.8287 12.3681 16.8021 12.357 16.78C12.0409 16.1244 11.7269 15.4667 11.4042 14.8155C11.3798 14.7668 11.2892 14.7203 11.2295 14.7203C10.4093 14.7136 9.59128 14.7181 8.77106 14.7136C8.66936 14.7136 8.62073 14.7513 8.57651 14.8399C8.37311 15.2718 8.16087 15.697 7.95306 16.1266C7.83809 16.3658 7.72313 16.605 7.60153 16.8641C9.21102 16.8641 10.7895 16.8641 12.3836 16.8641Z" fill="#CFCFCF" stroke="#CFCFCF" stroke-width="0.125"/>
<path d="M6.65756 4.2757C6.65756 5.15937 6.65756 6.03197 6.65756 6.92229C7.53968 6.92229 8.40854 6.92229 9.27519 6.92229C9.41447 7.69966 8.76669 8.79373 7.90889 9.25661C6.92729 9.78593 5.66932 9.62647 4.86458 8.87125C4.01562 8.07395 3.76801 6.84035 4.24997 5.80828C4.73856 4.75629 5.77987 4.24469 6.65756 4.2757Z" fill="#CFCFCF" stroke="#CFCFCF" stroke-width="0.125"/>
<path d="M15.8196 7.01747C15.667 7.01747 15.5145 7.01968 15.3619 7.01747C15.2116 7.01525 15.1077 6.93109 15.1165 6.80485C15.1276 6.66311 15.2138 6.6011 15.3531 6.59889C15.6803 6.59224 16.0053 6.58117 16.3325 6.57452C16.5138 6.57231 16.5823 6.62989 16.589 6.80485C16.6022 7.11492 16.6066 7.42719 16.6066 7.73725C16.6066 7.89228 16.5226 7.98973 16.4055 7.97423C16.2728 7.95651 16.1976 7.87678 16.1998 7.73504C16.2021 7.60437 16.1998 7.47149 16.1998 7.29209C16.0075 7.48035 15.8483 7.63538 15.6914 7.79041C14.5086 8.96199 13.328 10.1358 12.1452 11.3096C11.9683 11.4846 11.8799 11.4846 11.7008 11.3074C11.4134 11.0217 11.126 10.7316 10.8386 10.4459C10.6838 10.293 10.5888 10.2953 10.4318 10.4525C9.44798 11.4381 8.46416 12.4236 7.47813 13.4069C7.4317 13.4535 7.36538 13.5155 7.31011 13.5132C7.23273 13.5088 7.13545 13.4712 7.0846 13.4136C7.00944 13.3316 7.05144 13.2298 7.1244 13.1545C7.33443 12.9419 7.54888 12.7292 7.75891 12.5166C8.6366 11.6374 9.5143 10.7581 10.392 9.87889C10.6065 9.66185 10.6639 9.66185 10.8784 9.87446C11.1503 10.1469 11.4222 10.4215 11.6964 10.6917C11.8821 10.8755 11.9683 10.8711 12.1518 10.6917C13.328 9.52675 14.5041 8.3618 15.6825 7.19908C15.7334 7.14814 15.8063 7.11713 15.8682 7.07727C15.8505 7.06176 15.8351 7.03962 15.8196 7.01747Z" fill="#CFCFCF" stroke="#CFCFCF" stroke-width="0.125"/>
<path d="M16.0558 13.613C15.6335 13.613 15.2179 13.613 14.7867 13.613C14.7823 13.5642 14.7779 13.5177 14.7779 13.4712C14.7779 12.1313 14.7757 10.7914 14.7801 9.4515C14.7801 9.37177 14.8177 9.2721 14.873 9.21452C15.1957 8.87788 15.5274 8.5501 15.859 8.22454C15.8944 8.1891 15.9585 8.16031 16.0071 8.16474C16.0314 8.16696 16.069 8.24669 16.069 8.29098C16.0712 10.0495 16.0712 11.8057 16.069 13.5642C16.069 13.5753 16.0624 13.5864 16.0558 13.613Z" fill="#CFCFCF" stroke="#CFCFCF" stroke-width="0.125"/>
<path d="M6.93164 4.0166C8.13875 3.94794 9.54926 5.00658 9.56032 6.62554C8.68704 6.62554 7.81376 6.62554 6.93164 6.62554C6.93164 5.75515 6.93164 4.88477 6.93164 4.0166Z" fill="#CFCFCF" stroke="#CFCFCF" stroke-width="0.125"/>
<path d="M14.3224 13.6129C13.8891 13.6129 13.4735 13.6129 13.0446 13.6129C13.0402 13.5686 13.0313 13.5288 13.0313 13.4867C13.0313 12.7204 13.0291 11.9541 13.0335 11.1856C13.0335 11.1192 13.0623 11.035 13.1065 10.9885C13.4447 10.6386 13.7918 10.2953 14.1389 9.95422C14.1721 9.921 14.2296 9.91214 14.276 9.89442C14.2959 9.94093 14.3313 9.98523 14.3313 10.0317C14.3335 11.2011 14.3335 12.3683 14.3335 13.5376C14.3313 13.5576 14.3269 13.5797 14.3224 13.6129Z" fill="#CFCFCF" stroke="#CFCFCF" stroke-width="0.125"/>
<path d="M10.8429 13.6107C10.4074 13.6107 9.99178 13.6107 9.56288 13.6107C9.55845 13.5642 9.55182 13.5177 9.55182 13.4712C9.55182 12.995 9.54961 12.5166 9.55403 12.0404C9.55403 11.9784 9.57614 11.8987 9.61815 11.8566C9.88787 11.5754 10.162 11.2963 10.4472 11.0283C10.5069 10.973 10.6285 10.9397 10.7015 10.9597C10.7634 10.9774 10.8341 11.0903 10.8363 11.1634C10.8474 11.974 10.8429 12.7824 10.8429 13.6107Z" fill="#CFCFCF" stroke="#CFCFCF" stroke-width="0.125"/>
<path d="M11.2916 13.6063C11.2916 13.4734 11.2916 13.3472 11.2916 13.2187C11.2916 12.747 11.2894 12.2752 11.2938 11.8035C11.2938 11.757 11.3269 11.7105 11.3446 11.664C11.3866 11.6817 11.4331 11.6906 11.4684 11.7171C11.8023 11.974 12.1096 11.963 12.4213 11.6839C12.4523 11.6573 12.5053 11.6352 12.5407 11.6396C12.5628 11.6441 12.5893 11.7083 12.5893 11.7459C12.5915 12.3195 12.5915 12.8932 12.5915 13.4668C12.5915 13.5088 12.5871 13.5509 12.5849 13.6063C12.1538 13.6063 11.7315 13.6063 11.2916 13.6063Z" fill="#CFCFCF" stroke="#CFCFCF" stroke-width="0.125"/>
<path d="M9.09361 13.613C8.68461 13.613 8.28887 13.613 7.92188 13.613C8.30435 13.2254 8.70009 12.8267 9.09361 12.4281C9.09361 12.809 9.09361 13.2032 9.09361 13.613Z" fill="#CFCFCF" stroke="#CFCFCF" stroke-width="0.125"/>
</g>
<defs>
<clipPath id="clip0_2850_18677">
<rect width="20" height="20" fill="white"/>
</clipPath>
</defs>
</svg>
